<?xml version="1.0" encoding="UTF-8" standalone="no"?>
<svg
   xmlns:dc="http://purl.org/dc/elements/1.1/"
   xmlns:cc="http://creativecommons.org/ns#"
   xmlns:rdf="http://www.w3.org/1999/02/22-rdf-syntax-ns#"
   xmlns:svg="http://www.w3.org/2000/svg"
   xmlns="http://www.w3.org/2000/svg"
   xmlns:sodipodi="http://sodipodi.sourceforge.net/DTD/sodipodi-0.dtd"
   xmlns:inkscape="http://www.inkscape.org/namespaces/inkscape"
   id="bold"
   enable-background="new 0 0 24 24"
   height="512"
   viewBox="0 0 24 24"
   width="512"
   version="1.1"
   sodipodi:docname="copy.svg"
   inkscape:version="1.0.1 (3bc2e813f5, 2020-09-07)">
  <metadata
     id="metadata11">
    <rdf:RDF>
      <cc:Work
         rdf:about="">
        <dc:format>image/svg+xml</dc:format>
        <dc:type
           rdf:resource="http://purl.org/dc/dcmitype/StillImage" />
        <dc:title></dc:title>
      </cc:Work>
    </rdf:RDF>
  </metadata>
  <defs
     id="defs9" />
  <sodipodi:namedview
     pagecolor="#ffffff"
     bordercolor="#666666"
     borderopacity="1"
     objecttolerance="10"
     gridtolerance="10"
     guidetolerance="10"
     inkscape:pageopacity="0"
     inkscape:pageshadow="2"
     inkscape:window-width="1920"
     inkscape:window-height="1017"
     id="namedview7"
     showgrid="false"
     inkscape:zoom="1.4355469"
     inkscape:cx="256"
     inkscape:cy="256"
     inkscape:window-x="-8"
     inkscape:window-y="-8"
     inkscape:window-maximized="1"
     inkscape:current-layer="bold" />
  <path
     d="m4 6.75c0-2.619 2.131-4.75 4.75-4.75h9.133c-.329-1.151-1.378-2-2.633-2h-11.5c-1.517 0-2.75 1.233-2.75 2.75v15.5c0 1.517 1.233 2.75 2.75 2.75h.25z"
     id="path2"
     style="fill:#ffffff;fill-opacity:1" />
  <path
     d="m20.25 4h-11.5c-1.517 0-2.75 1.233-2.75 2.75v14.5c0 1.517 1.233 2.75 2.75 2.75h11.5c1.517 0 2.75-1.233 2.75-2.75v-14.5c0-1.517-1.233-2.75-2.75-2.75zm-2 17h-7.5c-.414 0-.75-.336-.75-.75s.336-.75.75-.75h7.5c.414 0 .75.336.75.75s-.336.75-.75.75zm0-4h-7.5c-.414 0-.75-.336-.75-.75s.336-.75.75-.75h7.5c.414 0 .75.336.75.75s-.336.75-.75.75zm0-3.5h-7.5c-.414 0-.75-.336-.75-.75s.336-.75.75-.75h7.5c.414 0 .75.336.75.75s-.336.75-.75.75zm0-4h-7.5c-.414 0-.75-.336-.75-.75s.336-.75.75-.75h7.5c.414 0 .75.336.75.75s-.336.75-.75.75z"
     id="path4"
     style="fill:#ffffff;fill-opacity:1" />
</svg>
